<?xml version="1.0" encoding="UTF-8" standalone="no"?>
<!-- Created with Inkscape (http://www.inkscape.org/) -->

<svg
   xmlns:dc="http://purl.org/dc/elements/1.1/"
   xmlns:cc="http://creativecommons.org/ns#"
   xmlns:rdf="http://www.w3.org/1999/02/22-rdf-syntax-ns#"
   xmlns:svg="http://www.w3.org/2000/svg"
   xmlns="http://www.w3.org/2000/svg"
   xmlns:xlink="http://www.w3.org/1999/xlink"
   xmlns:sodipodi="http://sodipodi.sourceforge.net/DTD/sodipodi-0.dtd"
   xmlns:inkscape="http://www.inkscape.org/namespaces/inkscape"
   width="140.53751"
   height="86.481918"
   id="svg2"
   version="1.1"
   inkscape:version="0.48.4 r9939"
   sodipodi:docname="dlb.svg"
   inkscape:export-filename="/home/roger/Imatges/dlb.png"
   inkscape:export-xdpi="695.21997"
   inkscape:export-ydpi="695.21997">
  <defs
     id="defs4">
    <linearGradient
       inkscape:collect="always"
       id="linearGradient4891">
      <stop
         style="stop-color:#ffffff;stop-opacity:1;"
         offset="0"
         id="stop4893" />
      <stop
         style="stop-color:#ffffff;stop-opacity:0;"
         offset="1"
         id="stop4895" />
    </linearGradient>
    <linearGradient
       id="linearGradient4869">
      <stop
         style="stop-color:#ffffff;stop-opacity:1;"
         offset="0"
         id="stop4871" />
      <stop
         style="stop-color:#ffffff;stop-opacity:0;"
         offset="1"
         id="stop4873" />
    </linearGradient>
    <linearGradient
       inkscape:collect="always"
       id="linearGradient4835">
      <stop
         style="stop-color:#004455;stop-opacity:1;"
         offset="0"
         id="stop4837" />
      <stop
         style="stop-color:#004455;stop-opacity:0;"
         offset="1"
         id="stop4839" />
    </linearGradient>
    <linearGradient
       inkscape:collect="always"
       id="linearGradient5477">
      <stop
         style="stop-color:#69aee3;stop-opacity:1;"
         offset="0"
         id="stop5479" />
      <stop
         style="stop-color:#69aee3;stop-opacity:0"
         offset="1"
         id="stop5481" />
    </linearGradient>
    <linearGradient
       inkscape:collect="always"
       id="linearGradient5327">
      <stop
         style="stop-color:#69aee3;stop-opacity:1;"
         offset="0"
         id="stop5329" />
      <stop
         style="stop-color:#69aee3;stop-opacity:0;"
         offset="1"
         id="stop5331" />
    </linearGradient>
    <linearGradient
       id="linearGradient4081">
      <stop
         style="stop-color:#ffffff;stop-opacity:0;"
         offset="0"
         id="stop4083" />
      <stop
         style="stop-color:#ffffff;stop-opacity:1;"
         offset="1"
         id="stop4085" />
    </linearGradient>
    <linearGradient
       id="linearGradient4073">
      <stop
         style="stop-color:#000000;stop-opacity:1;"
         offset="0"
         id="stop4075" />
      <stop
         style="stop-color:#800000;stop-opacity:0;"
         offset="1"
         id="stop4077" />
    </linearGradient>
    <linearGradient
       id="linearGradient4046">
      <stop
         style="stop-color:#ffffff;stop-opacity:1;"
         offset="0"
         id="stop4048" />
      <stop
         style="stop-color:#f9f9f9;stop-opacity:0;"
         offset="1"
         id="stop4050" />
    </linearGradient>
    <linearGradient
       id="linearGradient3975">
      <stop
         style="stop-color:#ffffff;stop-opacity:1;"
         offset="0"
         id="stop3977" />
      <stop
         id="stop3983"
         offset="0.45833325"
         style="stop-color:#69aee3;stop-opacity:1;" />
      <stop
         style="stop-color:#ffffff;stop-opacity:1;"
         offset="1"
         id="stop3979" />
    </linearGradient>
    <linearGradient
       id="linearGradient3900">
      <stop
         id="stop3902"
         offset="0"
         style="stop-color:#ffffff;stop-opacity:1;" />
      <stop
         id="stop3904"
         offset="1"
         style="stop-color:#69aee3;stop-opacity:1;" />
    </linearGradient>
    <linearGradient
       id="linearGradient3888">
      <stop
         style="stop-color:#69aee3;stop-opacity:1;"
         offset="0"
         id="stop3890" />
      <stop
         style="stop-color:#ffffff;stop-opacity:1"
         offset="1"
         id="stop3892" />
    </linearGradient>
    <linearGradient
       id="linearGradient3872">
      <stop
         style="stop-color:#69aee3;stop-opacity:1;"
         offset="0"
         id="stop3874" />
      <stop
         style="stop-color:#69aee3;stop-opacity:0;"
         offset="1"
         id="stop3876" />
    </linearGradient>
    <linearGradient
       inkscape:collect="always"
       xlink:href="#linearGradient4081"
       id="linearGradient4087"
       x1="136.42857"
       y1="146.76042"
       x2="118.42663"
       y2="126.98028"
       gradientUnits="userSpaceOnUse"
       gradientTransform="matrix(1,0,0,0.95383019,1.767767,7.1904405)" />
    <linearGradient
       inkscape:collect="always"
       xlink:href="#linearGradient4081"
       id="linearGradient4091"
       gradientUnits="userSpaceOnUse"
       x1="148.6405"
       y1="142.94594"
       x2="127.2969"
       y2="110.24225"
       gradientTransform="matrix(1,0,0,0.86818016,30.791969,20.894361)" />
    <linearGradient
       inkscape:collect="always"
       xlink:href="#linearGradient4081"
       id="linearGradient4102"
       gradientUnits="userSpaceOnUse"
       gradientTransform="matrix(0.8344787,0,0,0.90622379,82.684259,14.254399)"
       x1="177.90906"
       y1="151.21065"
       x2="127.4074"
       y2="108.1517" />
    <linearGradient
       inkscape:collect="always"
       xlink:href="#linearGradient5327"
       id="linearGradient5333"
       x1="236.85268"
       y1="178.89664"
       x2="236.76338"
       y2="182.22177"
       gradientUnits="userSpaceOnUse" />
    <clipPath
       clipPathUnits="userSpaceOnUse"
       id="clipPath5337">
      <path
         d="m 241.60715,183.50058 a 4.53125,4.53125 0 1 1 -9.0625,0 4.53125,4.53125 0 1 1 9.0625,0 z"
         sodipodi:ry="4.53125"
         sodipodi:rx="4.53125"
         sodipodi:cy="183.50058"
         sodipodi:cx="237.0759"
         id="path5339"
         style="fill:none;stroke:#69aee3;stroke-width:0.5;stroke-opacity:1"
         sodipodi:type="arc"
         transform="matrix(1,0,0,0.70935962,-0.46875,51.974703)" />
    </clipPath>
    <clipPath
       clipPathUnits="userSpaceOnUse"
       id="clipPath5341">
      <path
         d="m 241.60715,183.50058 a 4.53125,4.53125 0 1 1 -9.0625,0 4.53125,4.53125 0 1 1 9.0625,0 z"
         sodipodi:ry="4.53125"
         sodipodi:rx="4.53125"
         sodipodi:cy="183.50058"
         sodipodi:cx="237.0759"
         id="path5343"
         style="fill:none;stroke:#69aee3;stroke-width:0.5;stroke-opacity:1"
         sodipodi:type="arc" />
    </clipPath>
    <filter
       inkscape:collect="always"
       id="filter5453"
       color-interpolation-filters="sRGB">
      <feGaussianBlur
         inkscape:collect="always"
         stdDeviation="0.5517857"
         id="feGaussianBlur5455" />
    </filter>
    <linearGradient
       inkscape:collect="always"
       xlink:href="#linearGradient5477"
       id="linearGradient5483"
       x1="71.158035"
       y1="70.016991"
       x2="85.893143"
       y2="94.916527"
       gradientUnits="userSpaceOnUse" />
    <clipPath
       clipPathUnits="userSpaceOnUse"
       id="clipPath5496">
      <path
         d="m 96.607143,83.076469 a 18.392857,18.392857 0 1 1 -36.785713,0 18.392857,18.392857 0 1 1 36.785713,0 z"
         sodipodi:ry="18.392857"
         sodipodi:rx="18.392857"
         sodipodi:cy="83.076469"
         sodipodi:cx="78.214287"
         id="path5498"
         style="fill:none;stroke:#69aee3;stroke-width:1;stroke-linejoin:round;stroke-miterlimit:4;stroke-opacity:1;stroke-dasharray:none;filter:url(#filter5453)"
         sodipodi:type="arc"
         transform="matrix(1.1622062,0,0,1.3805682,-12.271768,-25.446392)" />
    </clipPath>
    <clipPath
       clipPathUnits="userSpaceOnUse"
       id="clipPath5500">
      <path
         d="m 96.607143,83.076469 a 18.392857,18.392857 0 1 1 -36.785713,0 18.392857,18.392857 0 1 1 36.785713,0 z"
         sodipodi:ry="18.392857"
         sodipodi:rx="18.392857"
         sodipodi:cy="83.076469"
         sodipodi:cx="78.214287"
         id="path5502"
         style="fill:none;stroke:#69aee3;stroke-width:1;stroke-linejoin:round;stroke-miterlimit:4;stroke-opacity:1;stroke-dasharray:none;filter:url(#filter5453)"
         sodipodi:type="arc" />
    </clipPath>
    <linearGradient
       inkscape:collect="always"
       xlink:href="#linearGradient5477"
       id="linearGradient5509"
       gradientUnits="userSpaceOnUse"
       x1="71.158035"
       y1="70.016991"
       x2="85.893143"
       y2="94.916527" />
    <filter
       inkscape:collect="always"
       id="filter4819">
      <feGaussianBlur
         inkscape:collect="always"
         stdDeviation="0.3341815"
         id="feGaussianBlur4821" />
    </filter>
    <linearGradient
       inkscape:collect="always"
       xlink:href="#linearGradient4835"
       id="linearGradient4841"
       x1="47.329346"
       y1="-15.345274"
       x2="47.569283"
       y2="-26.142481"
       gradientUnits="userSpaceOnUse" />
    <clipPath
       clipPathUnits="userSpaceOnUse"
       id="clipPath4845">
      <path
         transform="matrix(1.1141845,0,0,1.1141845,-5.3220805,4.2577257)"
         d="m 53.293154,-20.983814 a 6.68363,6.68363 0 1 1 -13.36726,0 6.68363,6.68363 0 1 1 13.36726,0 z"
         sodipodi:ry="6.68363"
         sodipodi:rx="6.68363"
         sodipodi:cy="-20.983814"
         sodipodi:cx="46.609524"
         id="path4847"
         style="opacity:0.96428576;fill:#4ff000;fill-opacity:0;stroke:#004455;stroke-width:1.5;stroke-opacity:1;filter:url(#filter4819)"
         sodipodi:type="arc" />
    </clipPath>
    <clipPath
       clipPathUnits="userSpaceOnUse"
       id="clipPath4849">
      <path
         d="m 53.293154,-20.983814 a 6.68363,6.68363 0 1 1 -13.36726,0 6.68363,6.68363 0 1 1 13.36726,0 z"
         sodipodi:ry="6.68363"
         sodipodi:rx="6.68363"
         sodipodi:cy="-20.983814"
         sodipodi:cx="46.609524"
         id="path4851"
         style="opacity:0.96428576;fill:#4ff000;fill-opacity:0;stroke:#004455;stroke-width:1.5;stroke-opacity:1;filter:url(#filter4819)"
         sodipodi:type="arc" />
    </clipPath>
    <linearGradient
       inkscape:collect="always"
       xlink:href="#linearGradient4835"
       id="linearGradient4857"
       gradientUnits="userSpaceOnUse"
       x1="47.329346"
       y1="-15.345274"
       x2="47.569283"
       y2="-26.142481" />
    <linearGradient
       inkscape:collect="always"
       xlink:href="#linearGradient4891"
       id="linearGradient4899"
       x1="139.92435"
       y1="57.645271"
       x2="145.8941"
       y2="62.744423"
       gradientUnits="userSpaceOnUse"
       gradientTransform="translate(131.56198,162.51774)" />
    <linearGradient
       inkscape:collect="always"
       xlink:href="#linearGradient4891"
       id="linearGradient4911"
       gradientUnits="userSpaceOnUse"
       x1="139.92435"
       y1="57.645271"
       x2="145.8941"
       y2="62.744423"
       gradientTransform="translate(25.122634,-0.4974779)" />
    <linearGradient
       inkscape:collect="always"
       xlink:href="#linearGradient4891"
       id="linearGradient4917"
       gradientUnits="userSpaceOnUse"
       gradientTransform="translate(25.122634,-0.4974779)"
       x1="139.92435"
       y1="57.645271"
       x2="145.8941"
       y2="62.744423" />
    <linearGradient
       inkscape:collect="always"
       xlink:href="#linearGradient4891"
       id="linearGradient4925"
       gradientUnits="userSpaceOnUse"
       gradientTransform="translate(25.122634,-0.4974779)"
       x1="139.92435"
       y1="57.645271"
       x2="145.8941"
       y2="62.744423" />
    <linearGradient
       inkscape:collect="always"
       xlink:href="#linearGradient4891"
       id="linearGradient4933"
       gradientUnits="userSpaceOnUse"
       gradientTransform="translate(25.122634,-0.4974779)"
       x1="139.92435"
       y1="57.645271"
       x2="145.8941"
       y2="62.744423" />
    <linearGradient
       inkscape:collect="always"
       xlink:href="#linearGradient4891"
       id="linearGradient4941"
       gradientUnits="userSpaceOnUse"
       gradientTransform="translate(25.122634,-0.4974779)"
       x1="139.92435"
       y1="57.645271"
       x2="145.8941"
       y2="62.744423" />
    <linearGradient
       inkscape:collect="always"
       xlink:href="#linearGradient4891"
       id="linearGradient4949"
       gradientUnits="userSpaceOnUse"
       gradientTransform="translate(25.122634,-0.4974779)"
       x1="139.92435"
       y1="57.645271"
       x2="145.8941"
       y2="62.744423" />
    <linearGradient
       inkscape:collect="always"
       xlink:href="#linearGradient4891"
       id="linearGradient4957"
       gradientUnits="userSpaceOnUse"
       gradientTransform="translate(25.122634,-0.4974779)"
       x1="139.92435"
       y1="57.645271"
       x2="145.8941"
       y2="62.744423" />
    <linearGradient
       inkscape:collect="always"
       xlink:href="#linearGradient4891"
       id="linearGradient4965"
       gradientUnits="userSpaceOnUse"
       gradientTransform="translate(25.122634,-0.4974779)"
       x1="139.92435"
       y1="57.645271"
       x2="145.8941"
       y2="62.744423" />
    <linearGradient
       inkscape:collect="always"
       xlink:href="#linearGradient4891"
       id="linearGradient4973"
       gradientUnits="userSpaceOnUse"
       gradientTransform="translate(25.122634,-0.4974779)"
       x1="139.92435"
       y1="57.645271"
       x2="145.8941"
       y2="62.744423" />
  </defs>
  <sodipodi:namedview
     id="base"
     pagecolor="#ffffff"
     bordercolor="#666666"
     borderopacity="1.0"
     inkscape:pageopacity="0.0"
     inkscape:pageshadow="2"
     inkscape:zoom="2.8427666"
     inkscape:cx="120.05894"
     inkscape:cy="35.138361"
     inkscape:document-units="px"
     inkscape:current-layer="capa1"
     showgrid="false"
     showguides="false"
     inkscape:guide-bbox="true"
     inkscape:window-width="1680"
     inkscape:window-height="995"
     inkscape:window-x="1364"
     inkscape:window-y="-3"
     inkscape:window-maximized="1"
     fit-margin-top="4"
     fit-margin-left="4"
     fit-margin-right="4"
     fit-margin-bottom="4"
     inkscape:snap-to-guides="false"
     showborder="false"
     inkscape:snap-grids="false">
    <sodipodi:guide
       orientation="0,1"
       position="-83.083082,81.927534"
       id="guide2985" />
    <sodipodi:guide
       orientation="1,0"
       position="32.384823,-38.099909"
       id="guide2987" />
    <sodipodi:guide
       orientation="0,1"
       position="138.3909,16.28871"
       id="guide2989" />
    <sodipodi:guide
       orientation="0,1"
       position="73.995643,4.6508622"
       id="guide2991" />
    <sodipodi:guide
       orientation="0,1"
       position="-59.091959,48.845031"
       id="guide2993" />
    <sodipodi:guide
       orientation="1,0"
       position="4.547654,-1.9151288"
       id="guide2995" />
    <sodipodi:guide
       orientation="1,0"
       position="28.538773,58.062681"
       id="guide3863" />
    <sodipodi:guide
       orientation="1,0"
       position="86.117473,53.138181"
       id="guide3865" />
    <sodipodi:guide
       orientation="1,0"
       position="56.823043,53.264451"
       id="guide3867" />
    <sodipodi:guide
       orientation="0,1"
       position="49.120633,78.265731"
       id="guide3869" />
    <sodipodi:guide
       orientation="0,1"
       position="138.07523,38.070124"
       id="guide4106" />
    <sodipodi:guide
       orientation="0,1"
       position="30.535714,80.223215"
       id="guide4769" />
    <sodipodi:guide
       orientation="1,0"
       position="60.768267,106.70901"
       id="guide4793" />
    <sodipodi:guide
       orientation="1,0"
       position="60.768267,65.517162"
       id="guide4795" />
    <sodipodi:guide
       orientation="1,0"
       position="89.877234,66.924242"
       id="guide4797" />
    <sodipodi:guide
       orientation="1,0"
       position="86.117473,66.836299"
       id="guide4799" />
    <sodipodi:guide
       orientation="1,0"
       position="87.942499,71.761079"
       id="guide4801" />
    <sodipodi:guide
       orientation="0,1"
       position="82.83007,29.973043"
       id="guide4803" />
    <sodipodi:guide
       orientation="1,0"
       position="87.942499,73.827728"
       id="guide4805" />
    <sodipodi:guide
       orientation="1,0"
       position="89.877234,58.217934"
       id="guide4975" />
    <sodipodi:guide
       orientation="1,0"
       position="92.867279,29.19691"
       id="guide4977" />
    <sodipodi:guide
       orientation="1,0"
       position="105.17923,50.303109"
       id="guide4979" />
    <sodipodi:guide
       orientation="1,0"
       position="63.846254,41.157089"
       id="guide4981" />
    <sodipodi:guide
       orientation="1,0"
       position="76.509974,37.639389"
       id="guide4983" />
    <sodipodi:guide
       orientation="1,0"
       position="35.176999,42.388284"
       id="guide4985" />
    <sodipodi:guide
       orientation="1,0"
       position="47.488949,39.925894"
       id="guide4987" />
    <sodipodi:guide
       orientation="0,1"
       position="-1.7411726,82.581331"
       id="guide3146" />
    <sodipodi:guide
       orientation="0,1"
       position="38.803276,5.2235179"
       id="guide3148" />
    <sodipodi:guide
       orientation="1,0"
       position="154.71563,21.142811"
       id="guide3126" />
  </sodipodi:namedview>
  <metadata
     id="metadata7">
    <rdf:RDF>
      <cc:Work
         rdf:about="">
        <dc:format>image/svg+xml</dc:format>
        <dc:type
           rdf:resource="http://purl.org/dc/dcmitype/StillImage" />
        <dc:title></dc:title>
      </cc:Work>
    </rdf:RDF>
  </metadata>
  <g
     inkscape:label="Capa 1"
     inkscape:groupmode="layer"
     id="capa1"
     transform="translate(-104.04375,-85.6375)">
    <path
       style="fill:#ffffff;stroke:#004455;stroke-width:1.50000000000000000;stroke-linecap:butt;stroke-linejoin:round;stroke-miterlimit:4;stroke-opacity:1;stroke-dasharray:none;fill-opacity:1"
       d="m 136.4375,90.1875 -1.85804,0.0044 c -2.99734,-1.6e-5 -0.98215,3.661787 -0.98214,3.661787 l 2.84018,2.9e-5 0,2.481694 0,26.94588 c 0,0 -27.84375,-0.0173 -27.84375,23.46875 0,23.48604 27.84375,20.71875 27.84375,20.71875 l 28.46875,0 13.125,0 5.5625,0 28.59375,0 c 0,0 27.84375,2.76729 27.84375,-20.71875 0,-23.48604 -27.84375,-23.46875 -27.84375,-23.46875 l 0,-33.093757 -18.125,0 -2.07625,0.0044 c -2.8354,-4.9e-5 -0.94087,3.661753 -0.90163,3.661754 l 2.97788,9.5e-5 0,47.615068 -10.46875,0 0,-51.281251 -18.6875,0 -2.11691,0.0043 c -2.7753,-1.5e-5 -0.66566,3.661803 -0.68156,3.661803 -0.0159,0 2.79847,7.8e-5 2.79847,7.8e-5 l 0,47.61508 -10.34375,0 0,-51.281263 z"
       id="path3852"
       inkscape:connector-curvature="0"
       sodipodi:nodetypes="cczcccscccccsccccscccccczccccc"
       inkscape:export-filename="/home/martag/DLB/logo/dlb_logo_white.png"
       inkscape:export-xdpi="695.21997"
       inkscape:export-ydpi="695.21997" />
    <path
       sodipodi:type="inkscape:offset"
       inkscape:radius="-1.3703353"
       inkscape:original="M 146.34375 113.3125 C 143.48824 113.3115 138 115.3125 138 115.3125 L 137.9375 123.28125 C 137.9295 124.06446 137.22071 124.77334 136.4375 124.78125 C 136.4375 124.78125 129.7212 124.80275 123.09375 127.59375 C 116.4663 130.38474 110.09375 135.60577 110.09375 146.75 C 110.09375 152.32211 111.71853 156.13709 114.09375 158.90625 C 116.46897 161.67541 119.67194 163.40599 122.96875 164.46875 C 129.56238 166.59428 136.28125 165.96875 136.28125 165.96875 C 136.33325 165.96575 136.38546 165.96575 136.4375 165.96875 L 164.90625 165.96875 L 178.03125 165.96875 L 183.59375 165.96875 L 212.1875 165.96875 C 212.2395 165.96575 212.29171 165.96575 212.34375 165.96875 C 212.34375 165.96875 219.06262 166.59428 225.65625 164.46875 C 228.95306 163.40599 232.15603 161.67541 234.53125 158.90625 C 236.90647 156.13709 238.53125 152.32211 238.53125 146.75 C 238.53125 135.60577 232.1587 130.38474 225.53125 127.59375 C 218.9038 124.80276 212.1875 124.78125 212.1875 124.78125 C 211.40429 124.77325 210.69541 124.06446 210.6875 123.28125 L 210.6875 115.9375 C 210.6875 115.9375 205.69627 114.87722 203.15625 114.6875 C 200.67663 114.50229 195.6875 114.78125 195.6875 114.78125 L 195.5625 141.46875 C 195.5545 142.25196 194.84571 142.96084 194.0625 142.96875 L 183.59375 142.96875 C 182.81054 142.96075 182.10166 142.25196 182.09375 141.46875 L 182.21875 116.3125 C 182.21875 116.3125 176.09243 117.80783 172.96875 117.84375 C 170.84341 117.86815 166.65625 116.9375 166.65625 116.9375 L 166.40625 141.46875 C 166.39825 142.25196 165.68946 142.96084 164.90625 142.96875 L 154.5625 142.96875 C 153.77929 142.96075 153.07041 142.25196 153.0625 141.46875 L 153.0625 114.90625 C 153.0625 114.90625 148.64786 113.31333 146.34375 113.3125 z "
       style="fill:#0184b4;fill-opacity:1;stroke:none"
       id="path4789"
       d="m 146.34375,114.6875 c -1.10736,-3.9e-4 -3.19442,0.45138 -4.875,0.9375 -1.17477,0.33981 -1.59559,0.51397 -2.09375,0.6875 l -0.0625,6.96875 c -0.0164,1.60139 -1.27341,2.85882 -2.875,2.875 0,0 -6.48792,0.0241 -12.8125,2.6875 -3.17683,1.33784 -6.20551,3.25389 -8.4375,6.0625 -2.23199,2.80861 -3.71875,6.53283 -3.71875,11.84375 0,5.30572 1.4849,8.71852 3.65625,11.25 2.16256,2.52122 5.11997,4.14725 8.25,5.15625 6.26018,2.01804 12.78125,1.4375 12.78125,1.4375 a 1.3704724,1.3704724 0 0 1 0.0312,0 c 0.0761,-0.004 0.17387,-0.002 0.25,0 0.0285,7.5e-4 0.0652,-0.002 0.0937,0 l 28.375,0 13.125,0 5.5625,0 28.5,0 0.0937,0 c 0.0761,-0.002 0.17392,-0.004 0.25,0 a 1.3704724,1.3704724 0 0 1 0.0312,0 c 0,0 6.52107,0.58054 12.78125,-1.4375 3.13003,-1.009 6.08744,-2.63503 8.25,-5.15625 2.17135,-2.53148 3.65625,-5.94428 3.65625,-11.25 0,-5.31092 -1.48676,-9.03514 -3.71875,-11.84375 -2.23199,-2.80861 -5.26067,-4.72466 -8.4375,-6.0625 -6.32458,-2.66344 -12.8125,-2.6875 -12.8125,-2.6875 -1.60139,-0.0164 -2.85882,-1.27341 -2.875,-2.875 l 0,-6.1875 c -1.13438,-0.23045 -4.29727,-0.8854 -6.25,-1.03125 -1.83916,-0.13737 -4.7205,0.003 -6,0.0625 l -0.125,25.34375 c -0.0164,1.60139 -1.27341,2.85882 -2.875,2.875 l -10.46875,0 c -1.60139,-0.0164 -2.85882,-1.27341 -2.875,-2.875 l 0.125,-23.4375 c -1.8439,0.42947 -5.17315,1.15679 -7.84375,1.1875 -1.6565,0.019 -3.59111,-0.30974 -5,-0.59375 l -0.21875,22.84375 c -0.0164,1.60139 -1.27341,2.85882 -2.875,2.875 l -10.34375,0 c -1.60139,-0.0164 -2.85882,-1.27341 -2.875,-2.875 l 0,-25.5625 c -0.43012,-0.14626 -0.66221,-0.22895 -1.5,-0.46875 -1.34365,-0.38459 -3.00717,-0.7497 -3.84375,-0.75 z"
       inkscape:export-filename="/home/martag/DLB/logo/dlb_logo_white.png"
       inkscape:export-xdpi="695.21997"
       inkscape:export-ydpi="695.21997" />
    <path
       style="fill:url(#linearGradient4087);fill-opacity:1;stroke:none"
       d="m 143.56793,116.88449 -2.77791,0.72264 -0.12627,9.39426 c 0,0 -11.04855,0.78285 -18.11962,4.69713 -4.2272,2.34002 -9.26101,6.16501 -9.34391,13.85051 -0.0829,7.68551 2.26715,9.87602 2.26715,9.87602 0,0 12.85489,-0.87231 18.88292,-6.16897 6.02803,-5.29664 9.03832,-10.73449 9.09137,-17.13602 z"
       id="path4063"
       inkscape:connector-curvature="0"
       sodipodi:nodetypes="cccszczsc"
       inkscape:export-filename="/home/martag/DLB/logo/dlb_logo_white.png"
       inkscape:export-xdpi="695.21997"
       inkscape:export-ydpi="695.21997" />
    <path
       sodipodi:nodetypes="ccccc"
       inkscape:connector-curvature="0"
       id="path4089"
       d="m 172.62371,120.57391 -2.98805,-0.49559 -0.037,22.116 2.86719,-0.0694 z"
       style="fill:url(#linearGradient4091);fill-opacity:1;stroke:none"
       inkscape:export-filename="/home/martag/DLB/logo/dlb_logo_white.png"
       inkscape:export-xdpi="695.21997"
       inkscape:export-ydpi="695.21997" />
    <path
       style="fill:url(#linearGradient4102);fill-opacity:1;stroke:none"
       d="m 200.89463,117.58281 -2.37305,0.16992 c 0,0 0.12886,15.52145 0.19329,23.28219 0.005,0.46692 0.005,1.28232 0.44625,1.40078 1.56115,0.41837 4.07455,0.67381 9.54968,-0.28932 5.47515,-0.96313 8.62642,-0.82549 12.81888,0 2.74649,0.54078 5.39769,1.69901 7.77083,3.18356 2.06586,1.29233 5.49004,5.10216 5.45145,4.8706 0.74377,-3.26247 2.02581,-7.72265 -1.59037,-12.81751 -3.61618,-5.09485 -11.92081,-9.27388 -19.48301,-8.52376 -5.15073,0.51091 -6.07648,1.27108 -8.98926,3.17188 -0.8239,0.53766 -3.56882,1.17055 -3.62983,0.004 z"
       id="path4093"
       inkscape:connector-curvature="0"
       sodipodi:nodetypes="ccsszaaczsscc"
       inkscape:export-xdpi="695.21997"
       inkscape:export-ydpi="695.21997"
       inkscape:export-filename="/home/martag/DLB/logo/dlb_logo_white.png" />
    <g
       id="g4913"
       transform="matrix(0.28131543,0,0,0.28131543,94.525789,91.002953)"
       inkscape:export-filename="/home/martag/DLB/logo/dlb_logo_white.png"
       inkscape:export-xdpi="695.21997"
       inkscape:export-ydpi="695.21997">
      <path
         transform="matrix(0.6025641,0,0,0.6025641,153.8617,81.026664)"
         d="m 35.694038,-33.037148 c 0,5.357615 -4.343204,9.700819 -9.700819,9.700819 -5.357614,0 -9.700819,-4.343204 -9.700819,-9.700819 0,-5.357614 4.343205,-9.700819 9.700819,-9.700819 5.357615,0 9.700819,4.343205 9.700819,9.700819 z"
         sodipodi:ry="9.700819"
         sodipodi:rx="9.700819"
         sodipodi:cy="-33.037148"
         sodipodi:cx="25.993219"
         id="path4907"
         style="opacity:0.96428576;fill:#0184b4;fill-opacity:1;stroke:none"
         sodipodi:type="arc" />
      <path
         style="fill:url(#linearGradient4917);fill-opacity:1;stroke:none"
         d="m 172.23154,58.882506 c 0,2.13823 -2.37643,3.677783 -4.51465,3.677783 -2.13823,0 -3.16739,-0.08911 -3.16739,-2.227345 0,-2.138228 2.10649,-4.120344 4.24472,-4.120344 2.13823,0 3.43732,0.971389 3.43732,2.669906 z"
         id="path4909"
         inkscape:connector-curvature="0"
         sodipodi:nodetypes="sssss" />
    </g>
    <g
       transform="matrix(0.46185333,0,0,0.46185333,69.372666,81.639445)"
       id="g4919"
       inkscape:export-filename="/home/martag/DLB/logo/dlb_logo_white.png"
       inkscape:export-xdpi="695.21997"
       inkscape:export-ydpi="695.21997">
      <path
         sodipodi:type="arc"
         style="opacity:0.96428576;fill:#0184b4;fill-opacity:1;stroke:none"
         id="path4921"
         sodipodi:cx="25.993219"
         sodipodi:cy="-33.037148"
         sodipodi:rx="9.700819"
         sodipodi:ry="9.700819"
         d="m 35.694038,-33.037148 c 0,5.357615 -4.343204,9.700819 -9.700819,9.700819 -5.357614,0 -9.700819,-4.343204 -9.700819,-9.700819 0,-5.357614 4.343205,-9.700819 9.700819,-9.700819 5.357615,0 9.700819,4.343205 9.700819,9.700819 z"
         transform="matrix(0.6025641,0,0,0.6025641,153.8617,81.026664)" />
      <path
         sodipodi:nodetypes="sssss"
         inkscape:connector-curvature="0"
         id="path4923"
         d="m 172.23154,58.882506 c 0,2.13823 -2.37643,3.677783 -4.51465,3.677783 -2.13823,0 -3.16739,-0.08911 -3.16739,-2.227345 0,-2.138228 2.10649,-4.120344 4.24472,-4.120344 2.13823,0 3.43732,0.971389 3.43732,2.669906 z"
         style="fill:url(#linearGradient4925);fill-opacity:1;stroke:none" />
    </g>
    <g
       id="g4927"
       transform="matrix(0.28131543,0,0,0.28131543,98.747029,86.869656)"
       inkscape:export-filename="/home/martag/DLB/logo/dlb_logo_white.png"
       inkscape:export-xdpi="695.21997"
       inkscape:export-ydpi="695.21997">
      <path
         transform="matrix(0.6025641,0,0,0.6025641,153.8617,81.026664)"
         d="m 35.694038,-33.037148 c 0,5.357615 -4.343204,9.700819 -9.700819,9.700819 -5.357614,0 -9.700819,-4.343204 -9.700819,-9.700819 0,-5.357614 4.343205,-9.700819 9.700819,-9.700819 5.357615,0 9.700819,4.343205 9.700819,9.700819 z"
         sodipodi:ry="9.700819"
         sodipodi:rx="9.700819"
         sodipodi:cy="-33.037148"
         sodipodi:cx="25.993219"
         id="path4929"
         style="opacity:0.96428576;fill:#0184b4;fill-opacity:1;stroke:none"
         sodipodi:type="arc" />
      <path
         style="fill:url(#linearGradient4933);fill-opacity:1;stroke:none"
         d="m 172.23154,58.882506 c 0,2.13823 -2.37643,3.677783 -4.51465,3.677783 -2.13823,0 -3.16739,-0.08911 -3.16739,-2.227345 0,-2.138228 2.10649,-4.120344 4.24472,-4.120344 2.13823,0 3.43732,0.971389 3.43732,2.669906 z"
         id="path4931"
         inkscape:connector-curvature="0"
         sodipodi:nodetypes="sssss" />
    </g>
    <g
       transform="matrix(0.55212228,0,0,0.55212228,83.379917,76.195091)"
       id="g4935"
       inkscape:export-filename="/home/martag/DLB/logo/dlb_logo_white.png"
       inkscape:export-xdpi="695.21997"
       inkscape:export-ydpi="695.21997">
      <path
         sodipodi:type="arc"
         style="opacity:0.96428576;fill:#0184b4;fill-opacity:1;stroke:none"
         id="path4937"
         sodipodi:cx="25.993219"
         sodipodi:cy="-33.037148"
         sodipodi:rx="9.700819"
         sodipodi:ry="9.700819"
         d="m 35.694038,-33.037148 c 0,5.357615 -4.343204,9.700819 -9.700819,9.700819 -5.357614,0 -9.700819,-4.343204 -9.700819,-9.700819 0,-5.357614 4.343205,-9.700819 9.700819,-9.700819 5.357615,0 9.700819,4.343205 9.700819,9.700819 z"
         transform="matrix(0.6025641,0,0,0.6025641,153.8617,81.026664)" />
      <path
         sodipodi:nodetypes="sssss"
         inkscape:connector-curvature="0"
         id="path4939"
         d="m 172.23154,58.882506 c 0,2.13823 -2.37643,3.677783 -4.51465,3.677783 -2.13823,0 -3.16739,-0.08911 -3.16739,-2.227345 0,-2.138228 2.10649,-4.120344 4.24472,-4.120344 2.13823,0 3.43732,0.971389 3.43732,2.669906 z"
         style="fill:url(#linearGradient4941);fill-opacity:1;stroke:none" />
    </g>
    <g
       transform="matrix(0.37158438,0,0,0.37158438,108.11083,91.802517)"
       id="g4943"
       inkscape:export-filename="/home/martag/DLB/logo/dlb_logo_white.png"
       inkscape:export-xdpi="695.21997"
       inkscape:export-ydpi="695.21997">
      <path
         sodipodi:type="arc"
         style="opacity:0.96428576;fill:#0184b4;fill-opacity:1;stroke:none"
         id="path4945"
         sodipodi:cx="25.993219"
         sodipodi:cy="-33.037148"
         sodipodi:rx="9.700819"
         sodipodi:ry="9.700819"
         d="m 35.694038,-33.037148 c 0,5.357615 -4.343204,9.700819 -9.700819,9.700819 -5.357614,0 -9.700819,-4.343204 -9.700819,-9.700819 0,-5.357614 4.343205,-9.700819 9.700819,-9.700819 5.357615,0 9.700819,4.343205 9.700819,9.700819 z"
         transform="matrix(0.6025641,0,0,0.6025641,153.8617,81.026664)" />
      <path
         sodipodi:nodetypes="sssss"
         inkscape:connector-curvature="0"
         id="path4947"
         d="m 172.23154,58.882506 c 0,2.13823 -2.37643,3.677783 -4.51465,3.677783 -2.13823,0 -3.16739,-0.08911 -3.16739,-2.227345 0,-2.138228 2.10649,-4.120344 4.24472,-4.120344 2.13823,0 3.43732,0.971389 3.43732,2.669906 z"
         style="fill:url(#linearGradient4949);fill-opacity:1;stroke:none" />
    </g>
    <g
       id="g4951"
       transform="matrix(0.55212228,0,0,0.55212228,107.01128,72.956307)"
       inkscape:export-filename="/home/martag/DLB/logo/dlb_logo_white.png"
       inkscape:export-xdpi="695.21997"
       inkscape:export-ydpi="695.21997">
      <path
         transform="matrix(0.6025641,0,0,0.6025641,153.8617,81.026664)"
         d="m 35.694038,-33.037148 c 0,5.357615 -4.343204,9.700819 -9.700819,9.700819 -5.357614,0 -9.700819,-4.343204 -9.700819,-9.700819 0,-5.357614 4.343205,-9.700819 9.700819,-9.700819 5.357615,0 9.700819,4.343205 9.700819,9.700819 z"
         sodipodi:ry="9.700819"
         sodipodi:rx="9.700819"
         sodipodi:cy="-33.037148"
         sodipodi:cx="25.993219"
         id="path4953"
         style="opacity:0.96428576;fill:#0184b4;fill-opacity:1;stroke:none"
         sodipodi:type="arc" />
      <path
         style="fill:url(#linearGradient4957);fill-opacity:1;stroke:none"
         d="m 172.23154,58.882506 c 0,2.13823 -2.37643,3.677783 -4.51465,3.677783 -2.13823,0 -3.16739,-0.08911 -3.16739,-2.227345 0,-2.138228 2.10649,-4.120344 4.24472,-4.120344 2.13823,0 3.43732,0.971389 3.43732,2.669906 z"
         id="path4955"
         inkscape:connector-curvature="0"
         sodipodi:nodetypes="sssss" />
    </g>
    <g
       transform="matrix(0.28131543,0,0,0.28131543,156.78909,94.696538)"
       id="g4959"
       inkscape:export-filename="/home/martag/DLB/logo/dlb_logo_white.png"
       inkscape:export-xdpi="695.21997"
       inkscape:export-ydpi="695.21997">
      <path
         sodipodi:type="arc"
         style="opacity:0.96428576;fill:#0184b4;fill-opacity:1;stroke:none"
         id="path4961"
         sodipodi:cx="25.993219"
         sodipodi:cy="-33.037148"
         sodipodi:rx="9.700819"
         sodipodi:ry="9.700819"
         d="m 35.694038,-33.037148 c 0,5.357615 -4.343204,9.700819 -9.700819,9.700819 -5.357614,0 -9.700819,-4.343204 -9.700819,-9.700819 0,-5.357614 4.343205,-9.700819 9.700819,-9.700819 5.357615,0 9.700819,4.343205 9.700819,9.700819 z"
         transform="matrix(0.6025641,0,0,0.6025641,153.8617,81.026664)" />
      <path
         sodipodi:nodetypes="sssss"
         inkscape:connector-curvature="0"
         id="path4963"
         d="m 172.23154,58.882506 c 0,2.13823 -2.37643,3.677783 -4.51465,3.677783 -2.13823,0 -3.16739,-0.08911 -3.16739,-2.227345 0,-2.138228 2.10649,-4.120344 4.24472,-4.120344 2.13823,0 3.43732,0.971389 3.43732,2.669906 z"
         style="fill:url(#linearGradient4965);fill-opacity:1;stroke:none" />
    </g>
    <g
       transform="matrix(0.28131543,0,0,0.28131543,159.60323,90.035586)"
       id="g4967"
       inkscape:export-filename="/home/martag/DLB/logo/dlb_logo_white.png"
       inkscape:export-xdpi="695.21997"
       inkscape:export-ydpi="695.21997">
      <path
         sodipodi:type="arc"
         style="opacity:0.96428576;fill:#0184b4;fill-opacity:1;stroke:none"
         id="path4969"
         sodipodi:cx="25.993219"
         sodipodi:cy="-33.037148"
         sodipodi:rx="9.700819"
         sodipodi:ry="9.700819"
         d="m 35.694038,-33.037148 c 0,5.357615 -4.343204,9.700819 -9.700819,9.700819 -5.357614,0 -9.700819,-4.343204 -9.700819,-9.700819 0,-5.357614 4.343205,-9.700819 9.700819,-9.700819 5.357615,0 9.700819,4.343205 9.700819,9.700819 z"
         transform="matrix(0.6025641,0,0,0.6025641,153.8617,81.026664)" />
      <path
         sodipodi:nodetypes="sssss"
         inkscape:connector-curvature="0"
         id="path4971"
         d="m 172.23154,58.882506 c 0,2.13823 -2.37643,3.677783 -4.51465,3.677783 -2.13823,0 -3.16739,-0.08911 -3.16739,-2.227345 0,-2.138228 2.10649,-4.120344 4.24472,-4.120344 2.13823,0 3.43732,0.971389 3.43732,2.669906 z"
         style="fill:url(#linearGradient4973);fill-opacity:1;stroke:none" />
    </g>
    <text
       xml:space="preserve"
       style="font-size:40px;font-style:normal;font-weight:normal;line-height:125%;letter-spacing:0px;word-spacing:0px;fill:#000000;fill-opacity:1;stroke:none;font-family:Sans"
       x="15.919293"
       y="98.918869"
       id="text3108"
       sodipodi:linespacing="125%"
       transform="translate(104.04375,85.6375)"><tspan
         sodipodi:role="line"
         id="tspan3110"
         x="15.919293"
         y="98.918869" /></text>
    <text
       xml:space="preserve"
       style="font-size:43.12865829px;font-style:normal;font-weight:normal;line-height:80.00000119%;letter-spacing:0px;word-spacing:0px;fill:#004455;fill-opacity:1;stroke:none;font-family:Sans"
       x="236.89742"
       y="111.87447"
       id="text3112-7"
       sodipodi:linespacing="74%"
       inkscape:export-filename="/home/martag/DLB/logo/dlb_logo_white.png"
       inkscape:export-xdpi="695.21997"
       inkscape:export-ydpi="695.21997"><tspan
         sodipodi:role="line"
         id="tspan3114-1"
         x="236.89742"
         y="111.87447"
         style="font-size:30.19006157000000101px;font-style:normal;font-variant:normal;font-weight:normal;font-stretch:normal;text-align:start;line-height:74%;writing-mode:lr-tb;text-anchor:start;fill:#004455;font-family:Ubuntu;-inkscape-font-specification:Ubuntu"><tspan
   style="font-size:34.50292586999999855px;font-style:normal;font-variant:normal;font-weight:bold;font-stretch:normal;text-align:start;line-height:74%;writing-mode:lr-tb;text-anchor:start;fill:#0184b4;stroke:#004455;font-family:Courier 10 Pitch;-inkscape-font-specification:Courier 10 Pitch Bold"
   id="tspan3120-6">d</tspan>ynamic</tspan><tspan
         sodipodi:role="line"
         x="236.89742"
         y="139.69734"
         id="tspan3116-4"
         style="font-size:30.19006157000000101px;font-style:normal;font-variant:normal;font-weight:normal;font-stretch:normal;text-align:start;line-height:74%;writing-mode:lr-tb;text-anchor:start;fill:#004455;font-family:Ubuntu;-inkscape-font-specification:Ubuntu"
         dx="0 -2.6819446 -0.53638887 -0.26819444"><tspan
   style="font-size:34.50292586999999855px;font-style:normal;font-variant:normal;font-weight:bold;font-stretch:normal;text-align:start;line-height:74%;writing-mode:lr-tb;text-anchor:start;fill:#0184b4;stroke:#004455;font-family:Courier 10 Pitch;-inkscape-font-specification:Courier 10 Pitch Bold"
   id="tspan3124-9"
   dx="4.9747791">l</tspan>oad</tspan><tspan
         sodipodi:role="line"
         x="236.89742"
         y="167.52022"
         id="tspan3118-8"
         style="font-size:30.19006157000000101px;font-style:normal;font-variant:normal;font-weight:normal;font-stretch:normal;text-align:start;line-height:74%;writing-mode:lr-tb;text-anchor:start;fill:#004455;font-family:Ubuntu;-inkscape-font-specification:Ubuntu"
         dx="0 -0.53638887"><tspan
   style="font-size:34.50292586999999855px;font-style:normal;font-variant:normal;font-weight:bold;font-stretch:normal;text-align:start;line-height:74%;writing-mode:lr-tb;text-anchor:start;fill:#0184b4;stroke:#004455;font-family:Courier 10 Pitch;-inkscape-font-specification:Courier 10 Pitch Bold"
   id="tspan3126-5"
   dx="10.198298">b</tspan>alancing</tspan></text>
    <text
       inkscape:export-ydpi="695.21997"
       inkscape:export-xdpi="695.21997"
       inkscape:export-filename="/home/martag/DLB/logo/dlb_logo_white.png"
       sodipodi:linespacing="74%"
       id="text3127"
       y="111.87447"
       x="236.89742"
       style="font-size:43.12865829px;font-style:normal;font-weight:normal;line-height:80.00000119%;letter-spacing:0px;word-spacing:0px;fill:#004455;fill-opacity:1;stroke:none;font-family:Sans"
       xml:space="preserve"><tspan
         style="font-size:30.19006157000000101px;font-style:normal;font-variant:normal;font-weight:normal;font-stretch:normal;text-align:start;line-height:74%;writing-mode:lr-tb;text-anchor:start;fill:#004455;font-family:Ubuntu;-inkscape-font-specification:Ubuntu"
         y="111.87447"
         x="236.89742"
         id="tspan3129"
         sodipodi:role="line"><tspan
           id="tspan3131"
           style="font-size:34.50292586999999855px;font-style:normal;font-variant:normal;font-weight:bold;font-stretch:normal;text-align:start;line-height:74%;writing-mode:lr-tb;text-anchor:start;fill:#0184b4;stroke:#004455;font-family:Courier 10 Pitch;-inkscape-font-specification:Courier 10 Pitch Bold">d</tspan><tspan
           style="fill:#ffffff;fill-opacity:1"
           id="tspan3913">ynamic</tspan></tspan><tspan
         dx="0 -2.6819446 -0.53638887 -0.26819444"
         style="font-size:30.19006157000000101px;font-style:normal;font-variant:normal;font-weight:normal;font-stretch:normal;text-align:start;line-height:74%;writing-mode:lr-tb;text-anchor:start;fill:#004455;font-family:Ubuntu;-inkscape-font-specification:Ubuntu"
         id="tspan3133"
         y="139.69734"
         x="236.89742"
         sodipodi:role="line"><tspan
           dx="4.9747791"
           id="tspan3135"
           style="font-size:34.50292586999999855px;font-style:normal;font-variant:normal;font-weight:bold;font-stretch:normal;text-align:start;line-height:74%;writing-mode:lr-tb;text-anchor:start;fill:#0184b4;stroke:#004455;font-family:Courier 10 Pitch;-inkscape-font-specification:Courier 10 Pitch Bold">l</tspan><tspan
           style="fill:#ffffff;fill-opacity:1"
           id="tspan3915">oad</tspan></tspan><tspan
         dx="0 -0.53638887"
         style="font-size:30.19006157000000101px;font-style:normal;font-variant:normal;font-weight:normal;font-stretch:normal;text-align:start;line-height:74%;writing-mode:lr-tb;text-anchor:start;fill:#004455;font-family:Ubuntu;-inkscape-font-specification:Ubuntu"
         id="tspan3137"
         y="167.52022"
         x="236.89742"
         sodipodi:role="line"><tspan
           dx="10.198298"
           id="tspan3139"
           style="font-size:34.50292586999999855px;font-style:normal;font-variant:normal;font-weight:bold;font-stretch:normal;text-align:start;line-height:74%;writing-mode:lr-tb;text-anchor:start;fill:#0184b4;stroke:#004455;font-family:Courier 10 Pitch;-inkscape-font-specification:Courier 10 Pitch Bold">b</tspan><tspan
           style="fill:#ffffff;fill-opacity:1"
           id="tspan3919">alancing</tspan></tspan></text>
  </g>
</svg>
